<?xml version="1.0" encoding="UTF-8" standalone="no"?>
<svg width="25px" height="25px" viewBox="0 0 25 25" version="1.1" xmlns="http://www.w3.org/2000/svg" xmlns:xlink="http://www.w3.org/1999/xlink" xmlns:sketch="http://www.bohemiancoding.com/sketch/ns">
    <!-- Generator: Sketch 3.3.2 (12043) - http://www.bohemiancoding.com/sketch -->
    <title>billing-selected</title>
    <desc>Created with Sketch.</desc>
    <defs></defs>
    <g id="Page-1" stroke="none" stroke-width="1" fill="none" fill-rule="evenodd" sketch:type="MSPage">
        <g id="Icons" sketch:type="MSArtboardGroup" transform="translate(-134.000000, -195.000000)" fill="#E43A2C">
            <g id="billing-selected" sketch:type="MSLayerGroup" transform="translate(134.000000, 195.000000)">
                <path d="M12.5,25 C5.59583333,25 0,19.4036458 0,12.5 C0,5.59635417 5.59583333,0 12.5,0 C19.403125,0 25,5.59635417 25,12.5 C25,19.4036458 19.403125,25 12.5,25 L12.5,25 Z M12.5,2.08333333 C6.75625,2.08333333 2.08333333,6.75625 2.08333333,12.5 C2.08333333,18.24375 6.75625,22.9166667 12.5,22.9166667 C18.24375,22.9166667 22.9166667,18.24375 22.9166667,12.5 C22.9166667,6.75625 18.24375,2.08333333 12.5,2.08333333 L12.5,2.08333333 Z M12.5,21.875 C7.33072917,21.875 3.125,17.6692708 3.125,12.5 C3.125,7.33072917 7.33072917,3.125 12.5,3.125 C17.6692708,3.125 21.875,7.33072917 21.875,12.5 C21.875,17.6697917 17.6692708,21.875 12.5,21.875 L12.5,21.875 Z M12.5,7.8125 C13.6489583,7.8125 14.5833333,8.746875 14.5833333,9.89583333 C14.5833333,10.1833333 14.8161458,10.4166667 15.1041667,10.4166667 C15.3916667,10.4166667 15.625,10.1833333 15.625,9.89583333 C15.625,8.35052083 14.4963542,7.06666667 13.0208333,6.81770833 L13.0208333,5.72916667 L11.9791667,5.72916667 L11.9791667,6.81770833 C10.5036458,7.06666667 9.375,8.35 9.375,9.89583333 C9.375,11.7567708 10.8713542,12.50625 12.3354167,12.9942708 C13.9953125,13.5473958 14.5833333,14.1 14.5833333,15.1041667 C14.5833333,16.253125 13.6489583,17.1875 12.5,17.1875 C11.3510417,17.1875 10.4166667,16.253125 10.4166667,15.1041667 C10.4166667,14.8166667 10.1833333,14.5833333 9.89583333,14.5833333 C9.60833333,14.5833333 9.375,14.8166667 9.375,15.1041667 C9.375,16.65 10.5036458,17.9333333 11.9791667,18.1822917 L11.9791667,19.2708333 L13.0208333,19.2708333 L13.0208333,18.1822917 C14.4963542,17.9333333 15.625,16.65 15.625,15.1041667 C15.625,13.24375 14.1286458,12.4942708 12.6645833,12.00625 C11.0046875,11.453125 10.4166667,10.9005208 10.4166667,9.89583333 C10.4166667,8.74739583 11.3510417,7.8125 12.5,7.8125 L12.5,7.8125 Z" id="Shape" sketch:type="MSShapeGroup"></path>
            </g>
        </g>
    </g>
</svg>