<?xml version="1.0" encoding="UTF-8" standalone="no"?>
<svg width="25px" height="25px" viewBox="0 0 25 25" version="1.1" xmlns="http://www.w3.org/2000/svg" xmlns:xlink="http://www.w3.org/1999/xlink" xmlns:sketch="http://www.bohemiancoding.com/sketch/ns">
    <!-- Generator: Sketch 3.3.2 (12043) - http://www.bohemiancoding.com/sketch -->
    <title>billing</title>
    <desc>Created with Sketch.</desc>
    <defs></defs>
    <g id="Page-1" stroke="none" stroke-width="1" fill="none" fill-rule="evenodd" sketch:type="MSPage">
        <g id="Icons" sketch:type="MSArtboardGroup" transform="translate(-169.000000, -195.000000)" fill="#9B9B9B">
            <g id="billing" sketch:type="MSLayerGroup" transform="translate(169.000000, 195.000000)">
                <path d="M12.5,25 C5.59583333,25 0,19.4036458 0,12.5 C0,5.59635417 5.59583333,0 12.5,0 C19.403125,0 25,5.59635417 25,12.5 C25,19.4036458 19.403125,25 12.5,25 L12.5,25 Z M12.5,0.911458333 C6.10989583,0.911458333 0.911458333,6.10989583 0.911458333,12.5 C0.911458333,18.8901042 6.10989583,24.0885417 12.5,24.0885417 C18.8901042,24.0885417 24.0885417,18.8901042 24.0885417,12.5 C24.0885417,6.10989583 18.8901042,0.911458333 12.5,0.911458333 L12.5,0.911458333 Z M12.5,22.9166667 C6.75625,22.9166667 2.08333333,18.24375 2.08333333,12.5 C2.08333333,6.75625 6.75625,2.08333333 12.5,2.08333333 C18.24375,2.08333333 22.9166667,6.75625 22.9166667,12.5 C22.9166667,18.24375 18.24375,22.9166667 12.5,22.9166667 L12.5,22.9166667 Z M12.5,3.125 C7.33072917,3.125 3.125,7.33072917 3.125,12.5 C3.125,17.6697917 7.33072917,21.875 12.5,21.875 C17.6692708,21.875 21.875,17.6692708 21.875,12.5 C21.875,7.33072917 17.6692708,3.125 12.5,3.125 L12.5,3.125 Z M12.6645833,12.00625 C14.1286458,12.4942708 15.625,13.24375 15.625,15.1041667 C15.625,16.65 14.4963542,17.9333333 13.0208333,18.1822917 L13.0208333,19.2708333 L11.9791667,19.2708333 L11.9791667,18.1822917 C10.5036458,17.9333333 9.375,16.65 9.375,15.1041667 C9.375,14.8166667 9.60833333,14.5833333 9.89583333,14.5833333 C10.1833333,14.5833333 10.4166667,14.8166667 10.4166667,15.1041667 C10.4166667,16.253125 11.3510417,17.1875 12.5,17.1875 C13.6484375,17.1875 14.5833333,16.253125 14.5833333,15.1041667 C14.5833333,14.1 13.9953125,13.5473958 12.3354167,12.9942708 C10.8713542,12.50625 9.375,11.7567708 9.375,9.89583333 C9.375,8.35052083 10.5036458,7.06666667 11.9791667,6.81770833 L11.9791667,5.72916667 L13.0208333,5.72916667 L13.0208333,6.81770833 C14.4963542,7.06666667 15.625,8.35 15.625,9.89583333 C15.625,10.1833333 15.3916667,10.4166667 15.1041667,10.4166667 C14.8166667,10.4166667 14.5833333,10.1833333 14.5833333,9.89583333 C14.5833333,8.74739583 13.6484375,7.8125 12.5,7.8125 C11.3510417,7.8125 10.4166667,8.746875 10.4166667,9.89583333 C10.4166667,10.9005208 11.0046875,11.453125 12.6645833,12.00625 L12.6645833,12.00625 Z" id="Shape" sketch:type="MSShapeGroup"></path>
            </g>
        </g>
    </g>
</svg>