<?xml version="1.0" encoding="UTF-8" standalone="no"?>
<svg width="25px" height="25px" viewBox="0 0 25 25" version="1.1" xmlns="http://www.w3.org/2000/svg" xmlns:xlink="http://www.w3.org/1999/xlink" xmlns:sketch="http://www.bohemiancoding.com/sketch/ns">
    <!-- Generator: Sketch 3.3.2 (12043) - http://www.bohemiancoding.com/sketch -->
    <title>info-selected</title>
    <desc>Created with Sketch.</desc>
    <defs></defs>
    <g id="Page-1" stroke="none" stroke-width="1" fill="none" fill-rule="evenodd" sketch:type="MSPage">
        <g id="Icons" sketch:type="MSArtboardGroup" transform="translate(-134.000000, -90.000000)" fill="#E43A2C">
            <g id="info-selected" sketch:type="MSLayerGroup" transform="translate(134.000000, 90.000000)">
                <path d="M12.5,0 C5.59635417,0 0,5.59635417 0,12.5 C0,19.4036458 5.59635417,25 12.5,25 C19.4036458,25 25,19.4036458 25,12.5 C25,5.59635417 19.4036458,0 12.5,0 L12.5,0 Z M12.89375,17.7234375 C12.934375,17.7135417 12.9770833,17.7083333 13.0208333,17.7083333 C13.3083333,17.7083333 13.5416667,17.9411458 13.5416667,18.2291667 C13.5416667,18.471875 13.3760417,18.6755208 13.1515625,18.7338542 L11.1973958,19.2380208 C11.1140625,19.2598958 11.0270833,19.2708333 10.9385417,19.2708333 C10.8609375,19.2708333 10.7817708,19.2619792 10.703125,19.2442708 C10.1427083,19.1145833 9.79322917,18.5557292 9.92239583,17.9947917 L11.2744792,12.1364583 C11.2927083,12.05625 11.2682292,11.9723958 11.209375,11.9140625 C11.1510417,11.85625 11.0661458,11.8333333 10.9859375,11.853125 L10.54375,11.9640625 C10.503125,11.9739583 10.4604167,11.9791667 10.4166667,11.9791667 C10.1286458,11.9791667 9.89583333,11.7463542 9.89583333,11.4583333 C9.89583333,11.215625 10.0614583,11.0119792 10.2864583,10.9536458 L12.2427083,10.45 C12.3989583,10.409375 12.5671875,10.4046875 12.734375,10.4427083 C13.2947917,10.5723958 13.6442708,11.13125 13.5151042,11.6921875 L12.1630208,17.5505208 C12.1447917,17.6307292 12.1692708,17.7145833 12.228125,17.7723958 C12.2864583,17.8307292 12.3713542,17.8536458 12.4515625,17.8338542 L12.89375,17.7234375 L12.89375,17.7234375 Z M13.5416667,8.85416667 C12.6791667,8.85416667 11.9791667,8.15416667 11.9791667,7.29166667 C11.9791667,6.42916667 12.6791667,5.72916667 13.5416667,5.72916667 C14.4041667,5.72916667 15.1041667,6.42916667 15.1041667,7.29166667 C15.1041667,8.15416667 14.4041667,8.85416667 13.5416667,8.85416667 L13.5416667,8.85416667 Z" id="Shape" sketch:type="MSShapeGroup"></path>
            </g>
        </g>
    </g>
</svg>