<?xml version="1.0" encoding="UTF-8" standalone="no"?>
<svg width="25px" height="25px" viewBox="0 0 25 25" version="1.1" xmlns="http://www.w3.org/2000/svg" xmlns:xlink="http://www.w3.org/1999/xlink" xmlns:sketch="http://www.bohemiancoding.com/sketch/ns">
    <!-- Generator: Sketch 3.3.2 (12043) - http://www.bohemiancoding.com/sketch -->
    <title>info</title>
    <desc>Created with Sketch.</desc>
    <defs></defs>
    <g id="Page-1" stroke="none" stroke-width="1" fill="none" fill-rule="evenodd" sketch:type="MSPage">
        <g id="Icons" sketch:type="MSArtboardGroup" transform="translate(-169.000000, -90.000000)" fill="#9B9B9B">
            <g id="info" sketch:type="MSLayerGroup" transform="translate(169.000000, 90.000000)">
                <path d="M12.5,25 C5.596875,25 0,19.403125 0,12.5 C0,5.59635417 5.596875,0 12.5,0 C19.403125,0 25,5.59635417 25,12.5 C25,19.403125 19.4036458,25 12.5,25 L12.5,25 Z M12.5,1.04166667 C6.18177083,1.04166667 1.04166667,6.18177083 1.04166667,12.5 C1.04166667,18.8177083 6.18177083,23.9583333 12.5,23.9583333 C18.8182292,23.9583333 23.9583333,18.8182292 23.9583333,12.5 C23.9583333,6.18177083 18.8182292,1.04166667 12.5,1.04166667 L12.5,1.04166667 Z M13.5416667,8.85416667 C12.6791667,8.85416667 11.9791667,8.15416667 11.9791667,7.29166667 C11.9791667,6.42916667 12.6791667,5.72916667 13.5416667,5.72916667 C14.4041667,5.72916667 15.1041667,6.42916667 15.1041667,7.29166667 C15.1041667,8.15416667 14.4046875,8.85416667 13.5416667,8.85416667 L13.5416667,8.85416667 Z M12.7348958,10.4427083 C13.2953125,10.5729167 13.6447917,11.1317708 13.515625,11.6927083 L12.1635417,17.5510417 C12.1447917,17.63125 12.1692708,17.7151042 12.2286458,17.7729167 C12.2875,17.83125 12.3723958,17.8536458 12.4520833,17.834375 L12.8942708,17.7234375 C12.934375,17.7135417 12.9776042,17.7083333 13.0208333,17.7083333 C13.3088542,17.7083333 13.5416667,17.9411458 13.5416667,18.2291667 C13.5416667,18.471875 13.3760417,18.6760417 13.1515625,18.7338542 L11.1979167,19.2375 C11.1140625,19.259375 11.0270833,19.2708333 10.9385417,19.2708333 C10.8609375,19.2708333 10.7817708,19.2619792 10.703125,19.2442708 C10.1427083,19.1145833 9.79270833,18.5557292 9.92239583,17.9947917 L11.2744792,12.1364583 C11.2927083,12.05625 11.2682292,11.9723958 11.209375,11.9140625 C11.1505208,11.85625 11.0661458,11.8333333 10.9859375,11.853125 L10.54375,11.9635417 C10.5036458,11.9739583 10.4604167,11.9791667 10.4166667,11.9791667 C10.1286458,11.9791667 9.89583333,11.7463542 9.89583333,11.4583333 C9.89583333,11.215625 10.0619792,11.0119792 10.2864583,10.9536458 L12.2427083,10.45 C12.3989583,10.409375 12.5671875,10.4052083 12.7348958,10.4427083 L12.7348958,10.4427083 Z" id="Shape" sketch:type="MSShapeGroup"></path>
            </g>
        </g>
    </g>
</svg>