<?xml version="1.0" encoding="UTF-8" standalone="no"?>
<svg width="25px" height="25px" viewBox="0 0 25 25" version="1.1" xmlns="http://www.w3.org/2000/svg" xmlns:xlink="http://www.w3.org/1999/xlink" xmlns:sketch="http://www.bohemiancoding.com/sketch/ns">
    <!-- Generator: Sketch 3.3.2 (12043) - http://www.bohemiancoding.com/sketch -->
    <title>left</title>
    <desc>Created with Sketch.</desc>
    <defs></defs>
    <g id="Page-1" stroke="none" stroke-width="1" fill="none" fill-rule="evenodd" sketch:type="MSPage">
        <g id="Assets" sketch:type="MSArtboardGroup" transform="translate(-75.000000, -285.000000)" fill="#9B9B9B">
            <g id="Main-Icons" sketch:type="MSLayerGroup" transform="translate(40.000000, 40.000000)">
                <g id="left" transform="translate(35.000000, 245.000000)" sketch:type="MSShapeGroup">
                    <path d="M12.5,25 C5.596875,25 0,19.403125 0,12.5 C0,5.59635417 5.596875,0 12.5,0 C19.403125,0 25,5.59635417 25,12.5 C25,19.403125 19.4036458,25 12.5,25 L12.5,25 Z M12.5,1.04166667 C6.18229167,1.04166667 1.04166667,6.18177083 1.04166667,12.5 C1.04166667,18.8177083 6.18177083,23.9583333 12.5,23.9583333 C18.8182292,23.9583333 23.9583333,18.8182292 23.9583333,12.5 C23.9583333,6.18177083 18.8182292,1.04166667 12.5,1.04166667 L12.5,1.04166667 Z M14.3614583,18.74375 L8.4859375,12.8682292 C8.384375,12.7666667 8.33333333,12.6333333 8.33333333,12.5 C8.33333333,12.3666667 8.384375,12.2333333 8.4859375,12.1317708 L14.3614583,6.25572917 L15.0979167,6.99270833 L9.59114583,12.5 L15.0984375,18.0072917 L14.3614583,18.74375 L14.3614583,18.74375 Z" id="Shape"></path>
                </g>
            </g>
        </g>
    </g>
</svg>