<?xml version="1.0" encoding="UTF-8" standalone="no"?>
<svg width="25px" height="25px" viewBox="0 0 25 25" version="1.1" xmlns="http://www.w3.org/2000/svg" xmlns:xlink="http://www.w3.org/1999/xlink" xmlns:sketch="http://www.bohemiancoding.com/sketch/ns">
    <!-- Generator: Sketch 3.3.2 (12043) - http://www.bohemiancoding.com/sketch -->
    <title>left-selected</title>
    <desc>Created with Sketch.</desc>
    <defs></defs>
    <g id="Page-1" stroke="none" stroke-width="1" fill="none" fill-rule="evenodd" sketch:type="MSPage">
        <g id="Assets" sketch:type="MSArtboardGroup" transform="translate(-40.000000, -285.000000)" fill="#E43A2C">
            <g id="Main-Icons" sketch:type="MSLayerGroup" transform="translate(40.000000, 40.000000)">
                <g id="left-selected" transform="translate(0.000000, 245.000000)" sketch:type="MSShapeGroup">
                    <path d="M12.5,0 C5.59635417,0 0,5.59635417 0,12.5 C0,19.4036458 5.59635417,25 12.5,25 C19.4036458,25 25,19.4036458 25,12.5 C25,5.59635417 19.4036458,0 12.5,0 L12.5,0 Z M15.0979167,18.0072917 L14.3614583,18.7442708 L8.4859375,12.8682292 C8.384375,12.7666667 8.33333333,12.6333333 8.33333333,12.5 C8.33333333,12.3666667 8.384375,12.2333333 8.4859375,12.1317708 L14.3614583,6.25625 L15.0979167,6.99270833 L9.590625,12.5 L15.0979167,18.0072917 L15.0979167,18.0072917 Z" id="Shape"></path>
                </g>
            </g>
        </g>
    </g>
</svg>