<?xml version="1.0" encoding="UTF-8" standalone="no"?>
<svg width="25px" height="25px" viewBox="0 0 25 25" version="1.1" xmlns="http://www.w3.org/2000/svg" xmlns:xlink="http://www.w3.org/1999/xlink" xmlns:sketch="http://www.bohemiancoding.com/sketch/ns">
    <!-- Generator: Sketch 3.3.2 (12043) - http://www.bohemiancoding.com/sketch -->
    <title>members</title>
    <desc>Created with Sketch.</desc>
    <defs></defs>
    <g id="Page-1" stroke="none" stroke-width="1" fill="none" fill-rule="evenodd" sketch:type="MSPage">
        <g id="Icons" sketch:type="MSArtboardGroup" transform="translate(-169.000000, -160.000000)" fill="#9B9B9B">
            <g id="members" sketch:type="MSLayerGroup" transform="translate(169.000000, 160.000000)">
                <path d="M12.5,0 C5.6078125,0 0,5.6078125 0,12.5 C0,19.3921875 5.6078125,25 12.5,25 C19.3921875,25 25,19.3921875 25,12.5 C25,5.6078125 19.3921875,0 12.5,0 L12.5,0 Z M12.5,1.04166667 C18.8182292,1.04166667 23.9583333,6.18177083 23.9583333,12.5 C23.9583333,14.6473958 23.3630208,16.6578125 22.33125,18.378125 C22.0546875,16.4588542 20.8994792,14.8244792 19.290625,13.8828125 C20.2354167,13.0244792 20.8333333,11.790625 20.8333333,10.4166667 C20.8333333,7.83229167 18.7302083,5.72916667 16.1458333,5.72916667 C13.5614583,5.72916667 11.4583333,7.83229167 11.4583333,10.4166667 C11.4583333,11.790625 12.05625,13.0244792 13.0010417,13.8822917 C12.1078125,14.4052083 11.3557292,15.1421875 10.8151042,16.0229167 C10.540625,15.5895833 10.1859375,15.215625 9.77552083,14.9098958 C10.1760417,14.384375 10.4166667,13.73125 10.4166667,13.0208333 C10.4166667,11.2973958 9.01510417,9.89583333 7.29166667,9.89583333 C5.56822917,9.89583333 4.16666667,11.2973958 4.16666667,13.0208333 C4.16666667,13.7255208 4.40364583,14.3739583 4.7984375,14.8973958 C3.784375,15.6578125 3.125,16.8666667 3.125,18.2291667 L3.125,19.0760417 C1.8140625,17.2130208 1.04166667,14.9458333 1.04166667,12.5 C1.04166667,6.18177083 6.18177083,1.04166667 12.5,1.04166667 L12.5,1.04166667 Z M12.5,10.4166667 C12.5,8.40625 14.1354167,6.77083333 16.1458333,6.77083333 C18.15625,6.77083333 19.7916667,8.40625 19.7916667,10.4166667 C19.7916667,12.4270833 18.15625,14.0625 16.1458333,14.0625 C14.1354167,14.0625 12.5,12.4270833 12.5,10.4166667 L12.5,10.4166667 Z M5.20833333,13.0208333 C5.20833333,11.871875 6.14270833,10.9375 7.29166667,10.9375 C8.440625,10.9375 9.375,11.871875 9.375,13.0208333 C9.375,14.1697917 8.440625,15.1041667 7.29166667,15.1041667 C6.14270833,15.1041667 5.20833333,14.1697917 5.20833333,13.0208333 L5.20833333,13.0208333 Z M4.12864583,20.3125 L4.16666667,20.3125 L4.16666667,18.2291667 C4.16666667,17.1411458 4.73020833,16.1890625 5.57552083,15.6296875 C6.06875,15.9552083 6.6578125,16.1458333 7.29166667,16.1458333 C7.92552083,16.1458333 8.51458333,15.9552083 9.0078125,15.6296875 C9.57916667,16.0078125 10.0197917,16.5640625 10.2453125,17.2234375 C10.0213542,17.8651042 9.89583333,18.553125 9.89583333,19.2708333 L9.89583333,23.65625 C7.6484375,23.1317708 5.65364583,21.9453125 4.12864583,20.3125 L4.12864583,20.3125 Z M12.5,23.9583333 C11.9697917,23.9583333 11.4484375,23.9192708 10.9375,23.8489583 L10.9375,19.2708333 C10.9375,17.1848958 12.1723958,15.3848958 13.9473958,14.5541667 C14.6036458,14.9041667 15.3515625,15.1041667 16.1458333,15.1041667 C16.9401042,15.1041667 17.6880208,14.9041667 18.3442708,14.5541667 C20.1192708,15.3848958 21.3541667,17.1848958 21.3541667,19.2708333 L21.3541667,19.7645833 C19.2510417,22.3234375 16.0630208,23.9583333 12.5,23.9583333 L12.5,23.9583333 Z" id="Shape" sketch:type="MSShapeGroup"></path>
            </g>
        </g>
    </g>
</svg>