<?xml version="1.0" encoding="UTF-8" standalone="no"?>
<svg width="25px" height="25px" viewBox="0 0 25 25" version="1.1" xmlns="http://www.w3.org/2000/svg" xmlns:xlink="http://www.w3.org/1999/xlink" xmlns:sketch="http://www.bohemiancoding.com/sketch/ns">
    <!-- Generator: Sketch 3.3.2 (12043) - http://www.bohemiancoding.com/sketch -->
    <title>members-selected</title>
    <desc>Created with Sketch.</desc>
    <defs></defs>
    <g id="Page-1" stroke="none" stroke-width="1" fill="none" fill-rule="evenodd" sketch:type="MSPage">
        <g id="Icons" sketch:type="MSArtboardGroup" transform="translate(-134.000000, -160.000000)" fill="#E43A2C">
            <g id="members-selected" sketch:type="MSLayerGroup" transform="translate(134.000000, 160.000000)">
                <path d="M12.5,0 C5.6078125,0 0,5.6078125 0,12.5 C0,19.3921875 5.6078125,25 12.5,25 C19.3921875,25 25,19.3921875 25,12.5 C25,5.6078125 19.3927083,0 12.5,0 L12.5,0 Z M16.1458333,6.25 C18.446875,6.25 20.3125,8.115625 20.3125,10.4166667 C20.3125,12.7177083 18.446875,14.5833333 16.1458333,14.5833333 C13.8442708,14.5833333 11.9791667,12.7177083 11.9791667,10.4166667 C11.9791667,8.115625 13.8447917,6.25 16.1458333,6.25 L16.1458333,6.25 Z M7.29166667,10.4166667 C8.73020833,10.4166667 9.89583333,11.5822917 9.89583333,13.0208333 C9.89583333,14.459375 8.73020833,15.625 7.29166667,15.625 C5.853125,15.625 4.6875,14.459375 4.6875,13.0208333 C4.6875,11.5822917 5.85364583,10.4166667 7.29166667,10.4166667 L7.29166667,10.4166667 Z M9.89583333,19.2708333 L9.89583333,23.6546875 C7.403125,23.0734375 5.21979167,21.6796875 3.64583333,19.7645833 L3.64583333,18.2291667 C3.64583333,17.2083333 4.0671875,16.2859375 4.74375,15.6239583 C5.4015625,16.2677083 6.30052083,16.6666667 7.29166667,16.6666667 C8.2828125,16.6666667 9.18177083,16.2677083 9.83958333,15.6239583 C10.115625,15.89375 10.3458333,16.2088542 10.5260417,16.5546875 C10.1265625,17.3770833 9.89583333,18.2963542 9.89583333,19.2708333 L9.89583333,19.2708333 Z M12.5,23.9583333 C11.96875,23.9583333 11.4494792,23.9088542 10.9375,23.8380208 L10.9375,19.2708333 C10.9375,17.3994792 11.9322917,15.7609375 13.4182292,14.8421875 C14.2125,15.3348958 15.1442708,15.625 16.1458333,15.625 C17.1473958,15.625 18.0791667,15.3354167 18.8734375,14.8427083 C20.359375,15.7609375 21.3541667,17.3994792 21.3541667,19.2708333 L21.3541667,19.7546875 C19.2515625,22.3171875 16.065625,23.9583333 12.5,23.9583333 L12.5,23.9583333 Z" id="Shape" sketch:type="MSShapeGroup"></path>
            </g>
        </g>
    </g>
</svg>