<?xml version="1.0" encoding="UTF-8" standalone="no"?>
<svg width="25px" height="25px" viewBox="0 0 25 25" version="1.1" xmlns="http://www.w3.org/2000/svg" xmlns:xlink="http://www.w3.org/1999/xlink" xmlns:sketch="http://www.bohemiancoding.com/sketch/ns">
    <!-- Generator: Sketch 3.3.2 (12043) - http://www.bohemiancoding.com/sketch -->
    <title>notification-close</title>
    <desc>Created with Sketch.</desc>
    <defs></defs>
    <g id="Page-1" stroke="none" stroke-width="1" fill="none" fill-rule="evenodd" sketch:type="MSPage">
        <g id="Assets" sketch:type="MSArtboardGroup" transform="translate(-140.000000, -75.000000)" fill="#CCBE00">
            <g id="notification-close" sketch:type="MSLayerGroup" transform="translate(140.000000, 75.000000)">
                <path d="M12.5,25 C5.59635417,25 0,19.403125 0,12.5 C0,5.59635417 5.59635417,7.10542736e-14 12.5,7.10542736e-14 C19.4036458,7.10542736e-14 25,5.59635417 25,12.5 C25,19.403125 19.4036458,25 12.5,25 L12.5,25 Z M12.5,1.04166667 C6.18177083,1.04166667 1.04166667,6.18177083 1.04166667,12.5 C1.04166667,18.8177083 6.18177083,23.9583333 12.5,23.9583333 C18.8182292,23.9583333 23.9583333,18.8182292 23.9583333,12.5 C23.9583333,6.18177083 18.8182292,1.04166667 12.5,1.04166667 L12.5,1.04166667 Z M17.2877022,16.5511326 L16.5511326,17.2877022 L12.5,13.2365696 L8.4488674,17.2877022 L7.71229784,16.5511326 L11.7634304,12.5 L7.71229784,8.4488674 L8.4488674,7.71229784 L12.5,11.7634304 L16.5511326,7.71229784 L17.2877022,8.4488674 L13.2365696,12.5 L17.2877022,16.5511326 L17.2877022,16.5511326 Z" id="Shape" sketch:type="MSShapeGroup"></path>
            </g>
        </g>
    </g>
</svg>