<?xml version="1.0" encoding="UTF-8" standalone="no"?>
<svg width="25px" height="25px" viewBox="0 0 25 25" version="1.1" xmlns="http://www.w3.org/2000/svg" xmlns:xlink="http://www.w3.org/1999/xlink" xmlns:sketch="http://www.bohemiancoding.com/sketch/ns">
    <!-- Generator: Sketch 3.3.2 (12043) - http://www.bohemiancoding.com/sketch -->
    <title>notification-alert</title>
    <desc>Created with Sketch.</desc>
    <defs></defs>
    <g id="Page-1" stroke="none" stroke-width="1" fill="none" fill-rule="evenodd" sketch:type="MSPage">
        <g id="Assets" sketch:type="MSArtboardGroup" transform="translate(-140.000000, -40.000000)" fill="#CCBE00">
            <g id="Notification-Icons" sketch:type="MSLayerGroup" transform="translate(134.000000, 40.000000)">
                <g id="notification-alert" transform="translate(6.000000, 0.000000)" sketch:type="MSShapeGroup">
                    <path d="M12.5,25 C5.596875,25 0,19.403125 0,12.5 C0,5.59635417 5.596875,0 12.5,0 C19.403125,0 25,5.59635417 25,12.5 C25,19.403125 19.4036458,25 12.5,25 L12.5,25 Z M12.5,1.04166667 C6.18177083,1.04166667 1.04166667,6.18177083 1.04166667,12.5 C1.04166667,18.8177083 6.18177083,23.9583333 12.5,23.9583333 C18.8182292,23.9583333 23.9583333,18.8182292 23.9583333,12.5 C23.9583333,6.18177083 18.8182292,1.04166667 12.5,1.04166667 L12.5,1.04166667 Z M12.5,19.2708333 C11.6375,19.2708333 10.9375,18.5703125 10.9375,17.7083333 C10.9375,16.8458333 11.6375,16.1458333 12.5,16.1458333 C13.3625,16.1458333 14.0625,16.8458333 14.0625,17.7083333 C14.0625,18.5703125 13.3630208,19.2708333 12.5,19.2708333 L12.5,19.2708333 Z M13.5385417,13.6296875 C13.49375,14.1630208 13.0458333,14.5833333 12.5,14.5833333 C11.9541667,14.5833333 11.5067708,14.1635417 11.4619792,13.6296875 L10.9427083,7.42291667 C10.9395833,7.38020833 10.9375,7.3359375 10.9375,7.29166667 C10.9375,6.42916667 11.6375,5.72916667 12.5,5.72916667 C13.3625,5.72916667 14.0625,6.42916667 14.0625,7.29166667 C14.0625,7.3359375 14.0604167,7.38020833 14.0567708,7.42291667 L13.5385417,13.6296875 L13.5385417,13.6296875 Z" id="Shape"></path>
                </g>
            </g>
        </g>
    </g>
</svg>