<?xml version="1.0" encoding="UTF-8" standalone="no"?>
<svg width="25px" height="25px" viewBox="0 0 25 25" version="1.1" xmlns="http://www.w3.org/2000/svg" xmlns:xlink="http://www.w3.org/1999/xlink" xmlns:sketch="http://www.bohemiancoding.com/sketch/ns">
    <!-- Generator: Sketch 3.3.2 (12043) - http://www.bohemiancoding.com/sketch -->
    <title>plus-selected</title>
    <desc>Created with Sketch.</desc>
    <defs></defs>
    <g id="Page-1" stroke="none" stroke-width="1" fill="none" fill-rule="evenodd" sketch:type="MSPage">
        <g id="Icons" sketch:type="MSArtboardGroup" transform="translate(-134.000000, -20.000000)" fill="#E43A2C">
            <g id="plus-selected" sketch:type="MSLayerGroup" transform="translate(134.000000, 20.000000)">
                <path d="M12.5,0 C5.59635417,0 0,5.59635417 0,12.5 C0,19.4036458 5.59635417,25 12.5,25 C19.4036458,25 25,19.4036458 25,12.5 C25,5.59635417 19.4036458,0 12.5,0 L12.5,0 Z M18.75,13.0208333 L13.0208333,13.0208333 L13.0208333,18.75 L11.9791667,18.75 L11.9791667,13.0208333 L6.25,13.0208333 L6.25,11.9791667 L11.9791667,11.9791667 L11.9791667,6.25 L13.0208333,6.25 L13.0208333,11.9791667 L18.75,11.9791667 L18.75,13.0208333 L18.75,13.0208333 Z" id="Shape" sketch:type="MSShapeGroup"></path>
            </g>
        </g>
    </g>
</svg>