<?xml version="1.0" encoding="UTF-8" standalone="no"?>
<svg width="25px" height="25px" viewBox="0 0 25 25" version="1.1" xmlns="http://www.w3.org/2000/svg" xmlns:xlink="http://www.w3.org/1999/xlink" xmlns:sketch="http://www.bohemiancoding.com/sketch/ns">
    <!-- Generator: Sketch 3.3.2 (12043) - http://www.bohemiancoding.com/sketch -->
    <title>profile</title>
    <desc>Created with Sketch.</desc>
    <defs></defs>
    <g id="Page-1" stroke="none" stroke-width="1" fill="none" fill-rule="evenodd" sketch:type="MSPage">
        <g id="Icons" sketch:type="MSArtboardGroup" transform="translate(-169.000000, -125.000000)" fill="#9B9B9B">
            <g id="profile" sketch:type="MSLayerGroup" transform="translate(169.000000, 125.000000)">
                <path d="M12.5,0 C5.59583333,0 0,5.59635417 0,12.5 C0,19.4036458 5.59583333,25 12.5,25 C19.403125,25 25,19.4036458 25,12.5 C25,5.59635417 19.403125,0 12.5,0 L12.5,0 Z M6.53958333,22.2822917 L6.4265625,21.9125 L6.38177083,21.7645833 C6.30677083,21.5171875 6.26822917,21.2614583 6.26822917,21.0041667 C6.26822917,20.0911458 6.7375,19.2619792 7.52239583,18.7864583 L7.81666667,18.6041667 L9.56041667,17.5510417 C10.4505208,17.9807292 11.4453125,18.2291667 12.5,18.2291667 C13.5546875,18.2291667 14.5489583,17.9807292 15.4390625,17.5510417 L17.184375,18.6052083 L17.1864583,18.6104167 L17.4770833,18.7864583 C18.2625,19.2625 18.73125,20.0911458 18.73125,21.0041667 C18.73125,21.2614583 18.6932292,21.5171875 18.6177083,21.7645833 L18.59375,21.8432292 L18.4598958,22.2822917 C16.7223958,23.3447917 14.68125,23.9583333 12.5,23.9583333 C10.31875,23.9583333 8.27760417,23.3447917 6.53958333,22.2822917 L6.53958333,22.2822917 Z M10.9375,8.74739583 C12.515625,10.1635417 14.5307292,10.9375 16.6666667,10.9375 C17.1786458,10.9375 17.6880208,10.8911458 18.1885417,10.8015625 C18.2135417,11.0171875 18.2291667,11.2359375 18.2291667,11.4583333 C18.2291667,14.6171875 15.6588542,17.1875 12.5,17.1875 C9.34114583,17.1875 6.77083333,14.6171875 6.77083333,11.4583333 C6.77083333,11.2291667 6.78802083,11.0041667 6.81458333,10.7817708 C8.35520833,10.4911458 9.7671875,9.7984375 10.9375,8.74739583 L10.9375,8.74739583 Z M7.06354167,9.66197917 C7.81927083,7.38072917 9.96875,5.72916667 12.5,5.72916667 C15.0713542,5.72916667 17.2515625,7.43229167 17.9744792,9.76927083 C17.54375,9.84427083 17.1072917,9.89583333 16.6666667,9.89583333 C14.6401042,9.89583333 12.7364583,9.10260417 11.3072917,7.66197917 L10.9375,7.29010417 L10.5677083,7.6625 C9.58802083,8.64947917 8.38697917,9.32864583 7.06354167,9.66197917 L7.06354167,9.66197917 Z M19.7453125,21.3692708 C19.7578125,21.2484375 19.7729167,21.128125 19.7729167,21.0041667 C19.7729167,19.6838542 19.0677083,18.5322917 18.0166667,17.8953125 L18.0140625,17.8890625 L16.4536458,16.946875 C18.1578125,15.7177083 19.2708333,13.7203125 19.2708333,11.4583333 C19.2708333,7.71875 16.2395833,4.6875 12.5,4.6875 C8.76041667,4.6875 5.72916667,7.71875 5.72916667,11.4583333 C5.72916667,13.7197917 6.8421875,15.7171875 8.54583333,16.946875 L6.98541667,17.8895833 L6.98333333,17.8958333 C5.93177083,18.5328125 5.22708333,19.684375 5.22708333,21.0046875 C5.22708333,21.1286458 5.2421875,21.2489583 5.2546875,21.3697917 C2.68489583,19.2661458 1.04166667,16.0713542 1.04166667,12.5 C1.04166667,6.18177083 6.18177083,1.04166667 12.5,1.04166667 C18.8182292,1.04166667 23.9583333,6.18177083 23.9583333,12.5 C23.9583333,16.0713542 22.3151042,19.2661458 19.7453125,21.3692708 L19.7453125,21.3692708 Z" id="Shape" sketch:type="MSShapeGroup"></path>
            </g>
        </g>
    </g>
</svg>