<?xml version="1.0" encoding="UTF-8" standalone="no"?>
<svg width="25px" height="25px" viewBox="0 0 25 25" version="1.1" xmlns="http://www.w3.org/2000/svg" xmlns:xlink="http://www.w3.org/1999/xlink" xmlns:sketch="http://www.bohemiancoding.com/sketch/ns">
    <!-- Generator: Sketch 3.3.2 (12043) - http://www.bohemiancoding.com/sketch -->
    <title>settings-selected</title>
    <desc>Created with Sketch.</desc>
    <defs></defs>
    <g id="Page-1" stroke="none" stroke-width="1" fill="none" fill-rule="evenodd" sketch:type="MSPage">
        <g id="Icons" sketch:type="MSArtboardGroup" transform="translate(-134.000000, -230.000000)" fill="#E43A2C">
            <g id="settings-selected" sketch:type="MSLayerGroup" transform="translate(134.000000, 230.000000)">
                <path d="M23.2640625,10.4927083 C23.3921875,11.2520833 24.0145833,11.8796875 25,11.8796875 L25,12.9213542 C22.9953125,12.9213542 22.5640625,15.5036458 24.4244792,16.1864583 L24.0682292,17.165625 C22.1890625,16.4765625 20.8916667,18.765625 22.4098958,20.0364583 L21.740625,20.8348958 C20.1942708,19.5380208 18.2119792,21.2494792 19.2010417,22.9651042 L18.2989583,23.4859375 C17.2994792,21.7473958 14.8354167,22.6734375 15.1838542,24.6197917 L14.1578125,24.8005208 C13.8078125,22.834375 11.1890625,22.8572917 10.8427083,24.8005208 L9.81666667,24.6197917 C10.1692708,22.6510417 7.69010417,21.765625 6.7015625,23.4859375 L5.79947917,22.9651042 C6.80052083,21.2291667 4.7921875,19.5458333 3.25989583,20.8348958 L2.59010417,20.0364583 C4.12239583,18.7541667 2.7953125,16.4822917 0.931770833,17.165625 L0.575520833,16.1864583 C2.4625,15.4942708 1.97552083,12.9213542 0,12.9213542 L0,11.8796875 C2.0046875,11.8796875 2.43541667,9.296875 0.575520833,8.61458333 L0.931770833,7.63541667 C2.81458333,8.32552083 4.1046875,6.03229167 2.58958333,4.76458333 L3.259375,3.96614583 C4.80625,5.26145833 6.7859375,3.55364583 5.79895833,1.8359375 L6.70104167,1.31510417 C7.70052083,3.05364583 10.1645833,2.12760417 9.81614583,0.18125 L10.8427083,0 C11.1869792,1.97083333 13.8197917,1.93697917 14.1578125,0 L15.1838542,0.180729167 C14.8380208,2.15572917 17.3052083,3.02708333 18.2989583,1.31458333 L19.2010417,1.83541667 C18.1911458,3.58645833 20.2322917,5.2390625 21.740625,3.965625 L22.4104167,4.7640625 C20.8760417,6.04791667 22.2072917,8.3171875 24.0677083,7.63489583 L24.4239583,8.6140625 C23.5,8.95260417 23.1375,9.74479167 23.2630208,10.4885417 C23.2635417,10.4890625 23.2640625,10.490625 23.2640625,10.4927083 L23.2640625,10.4927083 Z M12.5,2.5046875 C7.03489583,2.5046875 2.60416667,6.93541667 2.60416667,12.4005208 C2.60416667,17.865625 7.03489583,22.2963542 12.5,22.2963542 C17.9651042,22.2963542 22.3958333,17.865625 22.3958333,12.4005208 C22.3958333,6.93541667 17.9651042,2.5046875 12.5,2.5046875 L12.5,2.5046875 Z M12.5,21.2546875 C11.0729167,21.2546875 9.72916667,20.9088542 8.53541667,20.309375 L11.9473958,14.4 C12.1244792,14.4494792 12.3078125,14.4838542 12.5005208,14.4838542 C13.4682292,14.4838542 14.2770833,13.8177083 14.5098958,12.9213542 L21.328125,12.9213542 C21.0567708,17.5671875 17.2140625,21.2546875 12.5,21.2546875 L12.5,21.2546875 Z M13.5416667,12.4005208 C13.5416667,12.9755208 13.075,13.4421875 12.5,13.4421875 C11.925,13.4421875 11.4583333,12.9755208 11.4583333,12.4005208 C11.4583333,11.8255208 11.925,11.3588542 12.5,11.3588542 C13.0755208,11.3588542 13.5416667,11.8255208 13.5416667,12.4005208 L13.5416667,12.4005208 Z M12.5,10.3171875 C12.3072917,10.3171875 12.1244792,10.3515625 11.946875,10.4010417 L8.53541667,4.49166667 C9.72916667,3.8921875 11.0729167,3.54635417 12.5,3.54635417 C17.2140625,3.54635417 21.0567708,7.23385417 21.328125,11.8796875 L14.509375,11.8796875 C14.2765625,10.9833333 13.4677083,10.3171875 12.5,10.3171875 L12.5,10.3171875 Z M10.4166667,12.4005208 C10.4166667,12.98125 10.6567708,13.50625 11.0411458,13.8848958 L7.63125,19.7916667 C5.23125,18.2078125 3.64583333,15.4911458 3.64583333,12.4005208 C3.64583333,9.30989583 5.23125,6.59322917 7.63072917,5.009375 L11.0416667,10.9161458 C10.6567708,11.2947917 10.4166667,11.8197917 10.4166667,12.4005208 L10.4166667,12.4005208 Z" id="Shape" sketch:type="MSShapeGroup"></path>
            </g>
        </g>
    </g>
</svg>