<?xml version="1.0" encoding="UTF-8" standalone="no"?>
<svg width="25px" height="25px" viewBox="0 0 25 25" version="1.1" xmlns="http://www.w3.org/2000/svg" xmlns:xlink="http://www.w3.org/1999/xlink" xmlns:sketch="http://www.bohemiancoding.com/sketch/ns">
    <!-- Generator: Sketch 3.3.2 (12043) - http://www.bohemiancoding.com/sketch -->
    <title>settings</title>
    <desc>Created with Sketch.</desc>
    <defs></defs>
    <g id="Page-1" stroke="none" stroke-width="1" fill="none" fill-rule="evenodd" sketch:type="MSPage">
        <g id="Icons" sketch:type="MSArtboardGroup" transform="translate(-169.000000, -230.000000)" fill="#9B9B9B">
            <g id="settings" sketch:type="MSLayerGroup" transform="translate(169.000000, 230.000000)">
                <path d="M25,12.9213542 L25,11.8796875 C24.0145833,11.8796875 23.3921875,11.2520833 23.2640625,10.4927083 C23.2640625,10.490625 23.2635417,10.4890625 23.2635417,10.4890625 C23.1380208,9.7453125 23.5005208,8.95364583 24.4244792,8.61458333 L24.0682292,7.63541667 C22.2078125,8.31770833 20.8760417,6.04791667 22.4104167,4.7640625 L21.740625,3.96614583 C20.2322917,5.2390625 18.1911458,3.58645833 19.2010417,1.83541667 L18.2989583,1.31458333 C17.3046875,3.02708333 14.8375,2.15572917 15.1833333,0.180208333 L14.1578125,0 C13.8197917,1.93697917 11.1869792,1.9703125 10.8427083,0 L9.81666667,0.180729167 C10.1651042,2.12708333 7.70052083,3.05364583 6.7015625,1.31510417 L5.79947917,1.8359375 C6.78697917,3.55416667 4.80677083,5.26197917 3.25989583,3.96666667 L2.58958333,4.7640625 C4.1046875,6.03229167 2.81510417,8.32552083 0.931770833,7.63541667 L0.575520833,8.61458333 C2.43541667,9.296875 2.0046875,11.8796875 0,11.8796875 L0,12.9213542 C1.97552083,12.9213542 2.4625,15.4942708 0.575520833,16.1864583 L0.931770833,17.165625 C2.79479167,16.4822917 4.121875,18.7546875 2.59010417,20.0369792 L3.259375,20.8348958 C4.79166667,19.5458333 6.8,21.2296875 5.79895833,22.965625 L6.70104167,23.4864583 C7.68958333,21.7661458 10.16875,22.6515625 9.81614583,24.6208333 L10.8421875,24.8015625 C11.1885417,22.8583333 13.8072917,22.8359375 14.1572917,24.8015625 L15.1828125,24.6208333 C14.834375,22.6744792 17.2989583,21.7479167 18.2984375,23.4864583 L19.2005208,22.965625 C18.2114583,21.2494792 20.19375,19.5380208 21.7401042,20.8348958 L22.409375,20.0369792 C20.890625,18.7661458 22.1885417,16.4765625 24.0677083,17.165625 L24.4239583,16.1864583 C22.5640625,15.5041667 22.9953125,12.9213542 25,12.9213542 L25,12.9213542 Z M12.5,2.5046875 C17.7895833,2.5046875 22.096875,6.65833333 22.3697917,11.8796875 L14.509375,11.8796875 C14.2760417,10.9833333 13.4677083,10.3171875 12.5,10.3171875 C12.3072917,10.3171875 12.1244792,10.3515625 11.946875,10.4010417 L8.01354167,3.58802083 C9.3609375,2.9 10.8833333,2.5046875 12.5,2.5046875 L12.5,2.5046875 Z M13.5416667,12.4005208 C13.5416667,12.975 13.0744792,13.4421875 12.5,13.4421875 C11.9255208,13.4421875 11.4583333,12.975 11.4583333,12.4005208 C11.4583333,11.8260417 11.9255208,11.3588542 12.5,11.3588542 C13.0744792,11.3588542 13.5416667,11.8260417 13.5416667,12.4005208 L13.5416667,12.4005208 Z M2.60416667,12.4005208 C2.60416667,8.92447917 4.4,5.87291667 7.11041667,4.1078125 L11.0416667,10.9161458 C10.65625,11.2942708 10.4166667,11.8192708 10.4166667,12.4005208 C10.4166667,12.9817708 10.6567708,13.5067708 11.0416667,13.8848958 L7.11041667,20.6927083 C4.4,18.928125 2.60416667,15.8760417 2.60416667,12.4005208 L2.60416667,12.4005208 Z M22.3697917,12.9213542 C22.0973958,18.1427083 17.7895833,22.2963542 12.5,22.2963542 C10.8833333,22.2963542 9.3609375,21.9005208 8.01354167,21.2130208 L11.946875,14.4 C12.1239583,14.4494792 12.3072917,14.4838542 12.5,14.4838542 C13.4677083,14.4838542 14.2760417,13.8177083 14.509375,12.9213542 L22.3697917,12.9213542 L22.3697917,12.9213542 Z" id="Shape" sketch:type="MSShapeGroup"></path>
            </g>
        </g>
    </g>
</svg>